PathFileType	4	(X/Y/Z)	D:\Research_projects\MuscleProsody\BulkSports2Dtrack\RetrackedSports2D\p1_sample60_cam2\p1_sample60_cam2_Sports2D\p1_sample60_cam2_Sports2D_m_person00.trc
DataRate	CameraRate	NumFrames	NumMarkers	Units	OrigDataRate	OrigDataStartFrame	OrigNumFrames
60	60	7	22	m	60	390	780
Frame#	Time	Hip			RHip			RKnee			RAnkle			RBigToe			RSmallToe			RHeel			LHip			LKnee			LAnkle			LBigToe			LSmallToe			LHeel			Neck			Head			Nose			RShoulder			RElbow			RWrist			LShoulder			LElbow			LWrist		
		X1	Y1	Z1	X2	Y2	Z2	X3	Y3	Z3	X4	Y4	Z4	X5	Y5	Z5	X6	Y6	Z6	X7	Y7	Z7	X8	Y8	Z8	X9	Y9	Z9	X10	Y10	Z10	X11	Y11	Z11	X12	Y12	Z12	X13	Y13	Z13	X14	Y14	Z14	X15	Y15	Z15	X16	Y16	Z16	X17	Y17	Z17	X18	Y18	Z18	X19	Y19	Z19	X20	Y20	Z20	X21	Y21	Z21	X22	Y22	Z22
390	6.5	0.8960940011433227	0.866206097469618	0.0301	0.8031746847453668	0.841187803718753	0.0301	0.7899766284447693	0.45185559975906964	0.129	0.7754102253532225	0.12399428755922384	0.023	0.7582312948974911	0.003093389148309927	0.2179	0.7023416256866768	0.023678401666467317	0.1804	0.7973785439921366	0.09977620592246624	-0.0119	0.9954889288151513	0.866360052908337	0.0301	0.9661153997691903	0.45706552319574933	0.129	0.9325014231329292	0.11949072638083398	0.023	0.9091995932068052	-0.00676819250366391	0.2179	0.9742942386835075	0.007086687648713629	0.1804	0.9216864170818657	0.0929383320836191	-0.0119	0.718203188683878	1.4031423374886054	0.0008	0.591784219089366	1.6554702870641853	0.0655	0.6241864258079292	1.4838903452500183	0.1076	0.5896117979667157	1.2546083007231028	-0.01275	0.43400901506685313	1.0102295633508644	0.0702	0.17039366240356504	0.8750707608042598	0.1076	0.9206708110500678	1.446334569592302	-0.01275	1.177965814601407	1.5569854812843686	0.0702	1.3394291103832463	1.7942713100262795	0.1076
391	6.516666666666667	0.8939092777168798	0.8673820261113727	0.0301	0.8009616504567476	0.8419736602580592	0.0301	0.7889543565427944	0.45167372902897396	0.129	0.7752828074402849	0.12428324238877939	0.023	0.7580929253992589	0.00293144098272745	0.2179	0.7022619197047457	0.023554063792456194	0.1804	0.797126806170352	0.09996229213491545	-0.0119	0.9929648002110204	0.866895560549902	0.0301	0.9640756968961441	0.45783727814331465	0.129	0.9319056674516653	0.11996781634696287	0.023	0.9088430348649874	-0.00655074005272131	0.2179	0.9740859075517445	0.007525553060447888	0.1804	0.9211863770992887	0.09317269627276757	-0.0119	0.71487160543247	1.4044372858990632	0.0008	0.5881514244567668	1.6569513025528797	0.0655	0.6201166232910392	1.4854001264171166	0.1076	0.58689686486842	1.2553522186862363	-0.01275	0.4354945167754231	1.0085122068209833	0.0702	0.17352151428947063	0.8719045600757551	0.1076	0.9173945576329215	1.4465500195457357	-0.01275	1.178058062014881	1.550488733966965	0.0702	1.344724914543595	1.7844840342652515	0.1076
392	6.533333333333333	0.890951251053678	0.8685410116929534	0.0301	0.7979886181117353	0.8428378973512971	0.0301	0.7870007779495722	0.45148583525221075	0.129	0.7747265022787546	0.12446516259454612	0.023	0.7579904403409192	0.0026961978939183382	0.2179	0.7021897031480413	0.02334258509209144	0.1804	0.796388408496261	0.10011905271019522	-0.0119	0.9896257277774237	0.8672740267601683	0.0301	0.961569655547929	0.45861926502234973	0.129	0.9311954150304272	0.12037218617758365	0.023	0.9086500852339635	-0.006291906145340156	0.2179	0.9739127689140351	0.008131304612444113	0.1804	0.9206137511787377	0.09339874514455966	-0.0119	0.7123538808651096	1.4064592146555477	0.0008	0.5862313297420966	1.659821976856899	0.0655	0.6171687691654153	1.487918640247717	0.1076	0.5845029320859854	1.257512112876788	-0.01275	0.4369568238267572	1.0087784556310673	0.0702	0.1759900930295516	0.8720715293557573	0.1076	0.915045314408377	1.4466007181802378	-0.01275	1.1795858783305353	1.5415135617827702	0.0702	1.3530439218428776	1.770502392422602	0.1076
393	6.55	0.8872713254284745	0.8696463845647432	0.0301	0.7943208624155611	0.8437977607781113	0.0301	0.7841766667575909	0.4513674928982154	0.129	0.7737615459529723	0.12446318983290265	0.023	0.7579636672357448	0.002350257212504934	0.2179	0.7021503119822112	0.02298685932928535	0.1804	0.795226804474766	0.10014865776733785	-0.0119	0.9855635629498604	0.8675389707472243	0.0301	0.9586569940214602	0.4594259879964981	0.129	0.9303965146084533	0.12073867031901026	0.023	0.9086524967442517	-0.005965266086509844	0.2179	0.9737805626707899	0.00889803370877914	0.1804	0.9199803055243453	0.09364067832767231	-0.0119	0.710611657134482	1.4091642292694508	0.0008	0.5859582470180257	1.6640022815518194	0.0655	0.6153525974527225	1.4914370194558848	0.1076	0.5824344135189107	1.2609567836490034	-0.01275	0.4385824894555861	1.0108012861192395	0.0702	0.17811057549643408	0.875196925570808	0.1076	0.9135899292391876	1.4464403728958983	-0.01275	1.1821155489201902	1.5300262650126768	0.0702	1.3635361893874527	1.7522091935513056	0.1076
394	6.566666666666666	0.8829484928260835	0.8706244521977757	0.0301	0.7900504636408493	0.8448306071923508	0.0301	0.7806077789610205	0.45135851600441335	0.129	0.772435851816164	0.12426081837348091	0.023	0.7580386328710963	0.0018472075907422208	0.2179	0.702148420731847	0.02243688094110355	0.1804	0.7937002867553418	0.10000707062767966	-0.0119	0.9808759710587776	0.8676886414457062	0.0301	0.9554259813287186	0.4602459002028423	0.129	0.9295267568122536	0.12108788920646073	0.023	0.9088522635088827	-0.005581026879462852	0.2179	0.9736829286801334	0.009775856859129968	0.1804	0.9192822099090117	0.09390655055397101	-0.0119	0.709614142793832	1.4125017010418335	0.0008	0.5872345329331401	1.6693573715911463	0.0655	0.6146674056574355	1.4959320749846294	0.1076	0.5807260839183075	1.2655263664782672	-0.01275	0.44057126670091173	1.0143179928031238	0.0702	0.18025702283717274	0.8808524048830396	0.1076	0.9129702921931135	1.4460379092655458	-0.01275	1.1851657431948548	1.5160326962019042	0.0702	1.3752534965207803	1.7295344870402005	0.1076
395	6.583333333333333	0.8780914030275208	0.8714009114761339	0.0301	0.7853012225815317	0.8458986738732374	0.0301	0.7764720418912285	0.4514704116590519	0.129	0.7708214646196103	0.12391347907342061	0.023	0.7582354970526776	0.0011627855280812653	0.2179	0.7021796693142096	0.02167701361686051	0.1804	0.7918681653213636	0.09972493832527181	-0.0119	0.9756782556720798	0.8677089096937126	0.0301	0.9519747482678759	0.4610514008876855	0.129	0.9286037757406775	0.12141904442931387	0.023	0.9092405771187311	-0.005178173857436031	0.2179	0.9736212619700031	0.010684250661742027	0.1804	0.9185235118554026	0.0941903358599177	-0.0119	0.7093399848933238	1.4164139411727608	0.0008	0.5899295055014186	1.675709761637378	0.0655	0.6151011472729848	1.501341693147611	0.1076	0.5794260809521866	1.2710322700235634	-0.01275	0.4431229285319469	1.0190445225974112	0.0702	0.1828341886032543	0.888568651337284	0.1076	0.9131110085003009	1.4453778553788184	-0.01275	1.1882458838414038	1.4996119918031208	0.0702	1.387232970003876	1.702519020121049	0.1076
396	6.6	0.8728349193176086	0.8719332551310242	0.0301	0.7802240441273329	0.8469795651890532	0.0301	0.771979577032825	0.45170391475607446	0.129	0.7690188502736712	0.12351307904111404	0.023	0.7585636069594397	0.0003234215668040696	0.2179	0.7022421533345007	0.020745893907913805	0.1804	0.7898246036308179	0.09938712356461665	-0.0119	0.9701170740058408	0.8676048740612136	0.0301	0.9483898751814089	0.46180930837223516	0.129	0.9276523057219714	0.12172138426815739	0.023	0.9098220813031955	-0.004802629258278843	0.2179	0.9736156456108599	0.011540838074134089	0.1804	0.917733292694957	0.09448012774846812	-0.0119	0.7097666797610592	1.4208252386264157	0.0008	0.5938823556069847	1.6828431912247355	0.0655	0.6166216406602397	1.5075323110971566	0.1076	0.5785755848047788	1.2772574569974522	-0.01275	0.4464332308891574	1.0246976156619059	0.0702	0.18628670132351166	0.8978561902317391	0.1076	0.9139246515232884	1.4444475540577253	-0.01275	1.1908643577620095	1.4809162421745001	0.0702	1.3985266765668685	1.6713136332017329	0.1076
